<svg xmlns="http://www.w3.org/2000/svg" xmlns:xlink="http://www.w3.org/1999/xlink" width="100%" height="100%" viewBox="0 0 1600 980" role="img" aria-label="Feature Zone Map — DualTech 4D vs Brio+">
  <defs>
    <linearGradient id="bg1" x1="0" x2="0" y1="0" y2="1"><stop stop-color="#fbfaf7"/><stop offset="1" stop-color="#eee6da"/></linearGradient>
    <filter id="sh1" x="-10%" y="-10%" width="120%" height="130%"><feDropShadow dx="0" dy="8" stdDeviation="16" flood-color="#2b2114" flood-opacity=".12"/></filter>
  </defs>
  <rect width="1600" height="980" fill="url(#bg1)"/>

  <!-- Title -->
  <text x="800" y="56" fill="#9a7f4a" font-family="Inter,sans-serif" font-size="13" font-weight="900" letter-spacing="4" text-anchor="middle">MASSAGE CHAIRS &amp; MORE — FEATURE ZONE MAP</text>
  <text x="800" y="100" fill="#0b0b0b" font-family="Georgia,serif" font-size="40" font-weight="800" text-anchor="middle">Compare one body zone at a time</text>
  <text x="800" y="132" fill="#67605a" font-family="Inter,sans-serif" font-size="16" text-anchor="middle">Real product images · Tap a zone to compare DualTech 4D and Brio+ side by side</text>

  <!-- ========== DualTech 4D Card ========== -->
  <rect x="60" y="165" width="720" height="560" rx="24" fill="#fff" filter="url(#sh1)"/>
  <rect x="80" y="185" width="200" height="38" rx="19" fill="#9a7f4a"/>
  <text x="180" y="210" fill="#fff" font-family="Inter,sans-serif" font-size="14" font-weight="900" letter-spacing="2" text-anchor="middle">DUALTECH 4D DUAL</text>
  <image href="https://cdn.shopify.com/s/files/1/0813/4036/7096/files/PositivePosture_DualTech_Linen_315-Angle-front.webp?v=1772326033&amp;width=1200" x="220" y="250" width="400" height="400" preserveAspectRatio="xMidYMid meet"/>

  <!-- DualTech Head (353,331) → callout left -->
  <circle cx="353" cy="331" r="22" fill="none" stroke="#9a7f4a" stroke-width="2.5" stroke-dasharray="4 3"/>
  <line x1="331" y1="326" x2="100" y2="290" stroke="#9a7f4a" stroke-width="1.5"/>
  <rect x="80" y="276" width="130" height="28" rx="8" fill="#ede4cd"/>
  <text x="145" y="295" fill="#9a7f4a" font-family="Inter,sans-serif" font-size="11" font-weight="800" text-anchor="middle">Adjustable Headrest</text>

  <!-- DualTech Back (390,387) → callout right -->
  <circle cx="390" cy="387" r="28" fill="none" stroke="#9a7f4a" stroke-width="2.5" stroke-dasharray="4 3"/>
  <line x1="418" y1="382" x2="560" y2="355" stroke="#9a7f4a" stroke-width="1.5"/>
  <rect x="555" y="341" width="195" height="28" rx="8" fill="#ede4cd"/>
  <text x="653" y="360" fill="#9a7f4a" font-family="Inter,sans-serif" font-size="11" font-weight="800" text-anchor="middle">Upper 4D + SL-Track</text>

  <!-- DualTech Glutes (455,458) → callout left -->
  <circle cx="455" cy="458" r="22" fill="none" stroke="#9a7f4a" stroke-width="2.5" stroke-dasharray="4 3"/>
  <line x1="433" y1="460" x2="100" y2="440" stroke="#9a7f4a" stroke-width="1.5"/>
  <rect x="80" y="426" width="165" height="28" rx="8" fill="#ede4cd"/>
  <text x="163" y="445" fill="#9a7f4a" font-family="Inter,sans-serif" font-size="11" font-weight="800" text-anchor="middle">RotoTech Glute Massage</text>

  <!-- DualTech Calves (503,497) → callout right -->
  <circle cx="503" cy="497" r="20" fill="none" stroke="#9a7f4a" stroke-width="2.5" stroke-dasharray="4 3"/>
  <line x1="523" y1="493" x2="590" y2="480" stroke="#9a7f4a" stroke-width="1.5"/>
  <rect x="585" y="466" width="160" height="28" rx="8" fill="#ede4cd"/>
  <text x="665" y="485" fill="#9a7f4a" font-family="Inter,sans-serif" font-size="11" font-weight="800" text-anchor="middle">Dual Zone Calf Heat</text>

  <!-- DualTech Feet (534,543) → callout left -->
  <circle cx="534" cy="543" r="18" fill="none" stroke="#9a7f4a" stroke-width="2.5" stroke-dasharray="4 3"/>
  <line x1="516" y1="548" x2="100" y2="565" stroke="#9a7f4a" stroke-width="1.5"/>
  <rect x="80" y="553" width="175" height="28" rx="8" fill="#ede4cd"/>
  <text x="168" y="572" fill="#9a7f4a" font-family="Inter,sans-serif" font-size="11" font-weight="800" text-anchor="middle">Bi-Directional Foot Rollers</text>

  <!-- DualTech bottom bar -->
  <rect x="80" y="695" width="680" height="18" rx="4" fill="#9a7f4a" opacity=".06"/>
  <text x="420" y="708" fill="#9a7f4a" font-family="Inter,sans-serif" font-size="12" font-weight="700" text-anchor="middle">Dual mechanisms · Modern design · 3 in wall clearance · Tablet remote</text>

  <!-- ========== Brio+ Card ========== -->
  <rect x="820" y="165" width="720" height="560" rx="24" fill="#fff" filter="url(#sh1)"/>
  <rect x="840" y="185" width="170" height="38" rx="19" fill="#617064"/>
  <text x="925" y="210" fill="#fff" font-family="Inter,sans-serif" font-size="14" font-weight="900" letter-spacing="2" text-anchor="middle">BRIO+ MASSAGE</text>
  <image href="https://cdn.shopify.com/s/files/1/0813/4036/7096/files/Artboard-1-100-14-1.jpg?v=1772325831&amp;width=1200" x="980" y="250" width="400" height="400" preserveAspectRatio="xMidYMid meet"/>

  <!-- Brio+ Head (1127,365) → callout left -->
  <circle cx="1127" cy="365" r="22" fill="none" stroke="#617064" stroke-width="2.5" stroke-dasharray="4 3"/>
  <line x1="1105" y1="360" x2="870" y2="310" stroke="#617064" stroke-width="1.5"/>
  <rect x="845" y="296" width="155" height="28" rx="8" fill="#dee5e0"/>
  <text x="923" y="315" fill="#617064" font-family="Inter,sans-serif" font-size="11" font-weight="800" text-anchor="middle">Auto Body Scan Head</text>

  <!-- Brio+ Back (1169,407) → callout right -->
  <circle cx="1169" cy="407" r="28" fill="none" stroke="#617064" stroke-width="2.5" stroke-dasharray="4 3"/>
  <line x1="1197" y1="402" x2="1320" y2="370" stroke="#617064" stroke-width="1.5"/>
  <rect x="1315" y="356" width="185" height="28" rx="8" fill="#dee5e0"/>
  <text x="1408" y="375" fill="#617064" font-family="Inter,sans-serif" font-size="11" font-weight="800" text-anchor="middle">Heated 4D + L-Track</text>

  <!-- Brio+ Glutes (1201,447) → callout left -->
  <circle cx="1201" cy="447" r="22" fill="none" stroke="#617064" stroke-width="2.5" stroke-dasharray="4 3"/>
  <line x1="1179" y1="450" x2="870" y2="440" stroke="#617064" stroke-width="1.5"/>
  <rect x="845" y="426" width="165" height="28" rx="8" fill="#dee5e0"/>
  <text x="928" y="445" fill="#617064" font-family="Inter,sans-serif" font-size="11" font-weight="800" text-anchor="middle">L-Track Glute Coverage</text>

  <!-- Brio+ Calves (1241,494) → callout right -->
  <circle cx="1241" cy="494" r="20" fill="none" stroke="#617064" stroke-width="2.5" stroke-dasharray="4 3"/>
  <line x1="1261" y1="490" x2="1340" y2="480" stroke="#617064" stroke-width="1.5"/>
  <rect x="1335" y="466" width="160" height="28" rx="8" fill="#dee5e0"/>
  <text x="1415" y="485" fill="#617064" font-family="Inter,sans-serif" font-size="11" font-weight="800" text-anchor="middle">Infrared Calf Heat</text>

  <!-- Brio+ Feet (1260,535) → callout left -->
  <circle cx="1260" cy="535" r="18" fill="none" stroke="#617064" stroke-width="2.5" stroke-dasharray="4 3"/>
  <line x1="1242" y1="540" x2="870" y2="555" stroke="#617064" stroke-width="1.5"/>
  <rect x="845" y="543" width="180" height="28" rx="8" fill="#dee5e0"/>
  <text x="935" y="562" fill="#617064" font-family="Inter,sans-serif" font-size="11" font-weight="800" text-anchor="middle">Intelligent Touch Foot Rollers</text>

  <!-- Brio+ bottom bar -->
  <rect x="840" y="695" width="680" height="18" rx="4" fill="#617064" opacity=".06"/>
  <text x="1180" y="708" fill="#617064" font-family="Inter,sans-serif" font-size="12" font-weight="700" text-anchor="middle">Heated rollers · Refined 4D · Chromotherapy · Broad user fit</text>

  <!-- VS badge -->
  <circle cx="800" cy="440" r="32" fill="#14110f"/>
  <text x="800" y="447" fill="#e5c379" font-family="Inter,sans-serif" font-size="14" font-weight="900" letter-spacing="2" text-anchor="middle">VS</text>

  <!-- Bottom CTA -->
  <rect x="500" y="760" width="600" height="70" rx="16" fill="#14110f"/>
  <text x="800" y="797" fill="#e5c379" font-family="Inter,sans-serif" font-size="13" font-weight="800" letter-spacing="1" text-anchor="middle">COMPARE BOTH IN PERSON AT MASSAGE CHAIRS &amp; MORE</text>
  <text x="800" y="818" fill="rgba(255,255,255,.5)" font-family="Inter,sans-serif" font-size="11" text-anchor="middle">Test pressure · Body fit · Heat zones · Roller feel · Wall clearance</text>

  <!-- Footer -->
  <text x="800" y="920" fill="#b0a898" font-family="Inter,sans-serif" font-size="11" text-anchor="middle">massagechairsandmore.com · (408) 889-1188 · Sacramento Showroom</text>
</svg>
