<svg xmlns="http://www.w3.org/2000/svg" width="1600" height="980" viewBox="0 0 1600 980" role="img" aria-label="Feature zone map">
  <defs>
    <linearGradient id="bg1" x1="0" x2="0" y1="0" y2="1"><stop stop-color="#fbfaf7"/><stop offset="1" stop-color="#eee6da"/></linearGradient>
    <filter id="sh1" x="-10%" y="-10%" width="120%" height="130%"><feDropShadow dx="0" dy="8" stdDeviation="16" flood-color="#2b2114" flood-opacity=".12"/></filter>
  </defs>
  <rect width="1600" height="980" fill="url(#bg1)"/>
  <rect x="655" y="30" width="290" height="32" rx="16" fill="#0b0b0b"/>
  <text x="800" y="51" fill="#c3a363" font-family="Inter,sans-serif" font-size="11" font-weight="900" letter-spacing="3" text-anchor="middle">00 · FEATURE MAP</text>
  <text x="800" y="100" fill="#0b0b0b" font-family="Georgia,serif" font-size="38" font-weight="800" text-anchor="middle">Feature zone map</text>
  <text x="800" y="130" fill="#67605a" font-family="Inter,sans-serif" font-size="16" text-anchor="middle">A bird's-eye view of every key feature zone — head to toe.</text>


  <!-- BRIO SPORT card -->
  <rect x="60" y="160" width="720" height="620" rx="24" fill="#fff" filter="url(#sh1)"/>
  <rect x="80" y="180" width="190" height="38" rx="19" fill="#9a7f4a"/>
  <text x="175" y="205" fill="#fff" font-family="Inter,sans-serif" font-size="14" font-weight="900" letter-spacing="2" text-anchor="middle">BRIO SPORT</text>
  <image href="https://cdn.shopify.com/s/files/1/0813/4036/7096/files/PositivePosture_BrioSport_Beige_Upright_45.png?v=1772325852" x="220" y="250" width="400" height="400" preserveAspectRatio="xMidYMid meet"/>

  <!-- DUALTECH 4D card -->
  <rect x="820" y="160" width="720" height="620" rx="24" fill="#fff" filter="url(#sh1)"/>
  <rect x="840" y="180" width="190" height="38" rx="19" fill="#617064"/>
  <text x="935" y="205" fill="#fff" font-family="Inter,sans-serif" font-size="14" font-weight="900" letter-spacing="2" text-anchor="middle">DUALTECH 4D</text>
  <image href="https://cdn.shopify.com/s/files/1/0813/4036/7096/files/PositivePosture_DualTech_Slate_315-angle-front.webp?v=1772326033" x="980" y="250" width="400" height="400" preserveAspectRatio="xMidYMid meet"/>

  <ellipse cx="375" cy="367" rx="30" ry="60" fill="#9a7f4a" opacity=".10" stroke="#9a7f4a" stroke-width="2" stroke-dasharray="6 4"/>
  <line x1="405" y1="367" x2="560" y2="367" stroke="#9a7f4a" stroke-width="1.5"/>
  <rect x="560" y="343" width="200" height="48" rx="12" fill="#9a7f4a" opacity=".10"/>
  <text x="660" y="363" fill="#9a7f4a" font-family="Inter,sans-serif" font-size="12" font-weight="900" text-anchor="middle">HEAD &amp; AIRBAGS</text>
  <text x="660" y="381" fill="#9a7f4a" font-family="Inter,sans-serif" font-size="10" font-weight="600" text-anchor="middle">Shoulder-level airbags</text>

  <ellipse cx="405" cy="417" rx="35" ry="65" fill="#9a7f4a" opacity=".10" stroke="#9a7f4a" stroke-width="2" stroke-dasharray="6 4"/>
  <line x1="440" y1="417" x2="560" y2="417" stroke="#9a7f4a" stroke-width="1.5"/>
  <rect x="560" y="393" width="200" height="48" rx="12" fill="#9a7f4a" opacity=".10"/>
  <text x="660" y="413" fill="#9a7f4a" font-family="Inter,sans-serif" font-size="12" font-weight="900" text-anchor="middle">4D BACK ENGINE</text>
  <text x="660" y="431" fill="#9a7f4a" font-family="Inter,sans-serif" font-size="10" font-weight="600" text-anchor="middle">Quad-roller mechanism</text>

  <ellipse cx="447" cy="460" rx="30" ry="40" fill="#9a7f4a" opacity=".10" stroke="#9a7f4a" stroke-width="2" stroke-dasharray="6 4"/>
  <line x1="477" y1="460" x2="560" y2="460" stroke="#9a7f4a" stroke-width="1.5"/>
  <rect x="560" y="436" width="200" height="48" rx="12" fill="#9a7f4a" opacity=".10"/>
  <text x="660" y="456" fill="#9a7f4a" font-family="Inter,sans-serif" font-size="12" font-weight="900" text-anchor="middle">SEAT &amp; GLUTES</text>
  <text x="660" y="474" fill="#9a7f4a" font-family="Inter,sans-serif" font-size="10" font-weight="600" text-anchor="middle">Vibration + heat pad</text>

  <ellipse cx="497" cy="505" rx="25" ry="35" fill="#9a7f4a" opacity=".10" stroke="#9a7f4a" stroke-width="2" stroke-dasharray="6 4"/>
  <line x1="522" y1="505" x2="560" y2="505" stroke="#9a7f4a" stroke-width="1.5"/>
  <rect x="560" y="481" width="200" height="48" rx="12" fill="#9a7f4a" opacity=".10"/>
  <text x="660" y="501" fill="#9a7f4a" font-family="Inter,sans-serif" font-size="12" font-weight="900" text-anchor="middle">CALF MASSAGE</text>
  <text x="660" y="519" fill="#9a7f4a" font-family="Inter,sans-serif" font-size="10" font-weight="600" text-anchor="middle">Airbag compression</text>

  <ellipse cx="511" cy="544" rx="25" ry="30" fill="#9a7f4a" opacity=".10" stroke="#9a7f4a" stroke-width="2" stroke-dasharray="6 4"/>
  <line x1="536" y1="544" x2="560" y2="544" stroke="#9a7f4a" stroke-width="1.5"/>
  <rect x="560" y="520" width="200" height="48" rx="12" fill="#9a7f4a" opacity=".10"/>
  <text x="660" y="540" fill="#9a7f4a" font-family="Inter,sans-serif" font-size="12" font-weight="900" text-anchor="middle">FOOT ROLLERS</text>
  <text x="660" y="558" fill="#9a7f4a" font-family="Inter,sans-serif" font-size="10" font-weight="600" text-anchor="middle">Reflexology rollers</text>

  <ellipse cx="1117" cy="332" rx="30" ry="55" fill="#617064" opacity=".10" stroke="#617064" stroke-width="2" stroke-dasharray="6 4"/>
  <line x1="1087" y1="332" x2="1037" y2="332" stroke="#617064" stroke-width="1.5"/>
  <rect x="837" y="308" width="200" height="48" rx="12" fill="#617064" opacity=".10"/>
  <text x="937" y="328" fill="#617064" font-family="Inter,sans-serif" font-size="12" font-weight="900" text-anchor="middle">HEAD PILLOW</text>
  <text x="937" y="346" fill="#617064" font-family="Inter,sans-serif" font-size="10" font-weight="600" text-anchor="middle">Adjustable headrest</text>

  <ellipse cx="1177" cy="397" rx="35" ry="60" fill="#617064" opacity=".10" stroke="#617064" stroke-width="2" stroke-dasharray="6 4"/>
  <line x1="1142" y1="397" x2="1092" y2="397" stroke="#617064" stroke-width="1.5"/>
  <rect x="892" y="373" width="200" height="48" rx="12" fill="#617064" opacity=".10"/>
  <text x="992" y="393" fill="#617064" font-family="Inter,sans-serif" font-size="12" font-weight="900" text-anchor="middle">4D BACK ENGINE</text>
  <text x="992" y="411" fill="#617064" font-family="Inter,sans-serif" font-size="10" font-weight="600" text-anchor="middle">Dual-track mechanism</text>

  <ellipse cx="1212" cy="440" rx="30" ry="40" fill="#617064" opacity=".10" stroke="#617064" stroke-width="2" stroke-dasharray="6 4"/>
  <line x1="1182" y1="440" x2="1132" y2="440" stroke="#617064" stroke-width="1.5"/>
  <rect x="932" y="416" width="200" height="48" rx="12" fill="#617064" opacity=".10"/>
  <text x="1032" y="436" fill="#617064" font-family="Inter,sans-serif" font-size="12" font-weight="900" text-anchor="middle">HEATED SEAT</text>
  <text x="1032" y="454" fill="#617064" font-family="Inter,sans-serif" font-size="10" font-weight="600" text-anchor="middle">Lumbar heat therapy</text>

  <ellipse cx="1261" cy="490" rx="25" ry="35" fill="#617064" opacity=".10" stroke="#617064" stroke-width="2" stroke-dasharray="6 4"/>
  <line x1="1236" y1="490" x2="1186" y2="490" stroke="#617064" stroke-width="1.5"/>
  <rect x="986" y="466" width="200" height="48" rx="12" fill="#617064" opacity=".10"/>
  <text x="1086" y="486" fill="#617064" font-family="Inter,sans-serif" font-size="12" font-weight="900" text-anchor="middle">CALF KNEADING</text>
  <text x="1086" y="504" fill="#617064" font-family="Inter,sans-serif" font-size="10" font-weight="600" text-anchor="middle">Air + roller combo</text>

  <ellipse cx="1293" cy="540" rx="25" ry="30" fill="#617064" opacity=".10" stroke="#617064" stroke-width="2" stroke-dasharray="6 4"/>
  <line x1="1268" y1="540" x2="1218" y2="540" stroke="#617064" stroke-width="1.5"/>
  <rect x="1018" y="516" width="200" height="48" rx="12" fill="#617064" opacity=".10"/>
  <text x="1118" y="536" fill="#617064" font-family="Inter,sans-serif" font-size="12" font-weight="900" text-anchor="middle">FOOT ROLLERS</text>
  <text x="1118" y="554" fill="#617064" font-family="Inter,sans-serif" font-size="10" font-weight="600" text-anchor="middle">Shiatsu-style rollers</text>

  <rect x="80" y="670" width="680" height="90" rx="16" fill="#f8f5ef"/>
  <text x="100" y="693" fill="#9a7f4a" font-family="Inter,sans-serif" font-size="11" font-weight="900" letter-spacing="2">KEY HIGHLIGHTS</text>
  <circle cx="105" cy="714" r="5" fill="#9a7f4a"/>
  <text x="118" y="718" fill="#3c3c3c" font-family="Inter,sans-serif" font-size="13" font-weight="600">Full-body airbag system · 4D back mechanism · Heat therapy</text>
  <circle cx="105" cy="736" r="5" fill="#9a7f4a"/>
  <text x="118" y="740" fill="#3c3c3c" font-family="Inter,sans-serif" font-size="13" font-weight="600">Compact design · Space-saving wall-hug technology</text>

  <rect x="840" y="670" width="680" height="90" rx="16" fill="#f8f5ef"/>
  <text x="860" y="693" fill="#617064" font-family="Inter,sans-serif" font-size="11" font-weight="900" letter-spacing="2">KEY HIGHLIGHTS</text>
  <circle cx="865" cy="714" r="5" fill="#617064"/>
  <text x="878" y="718" fill="#3c3c3c" font-family="Inter,sans-serif" font-size="13" font-weight="600">Dual-track 4D massage engine · Extended SL-track</text>
  <circle cx="865" cy="736" r="5" fill="#617064"/>
  <text x="878" y="740" fill="#3c3c3c" font-family="Inter,sans-serif" font-size="13" font-weight="600">Calf kneading + foot rollers · Voice control ready</text>

</svg>