<svg xmlns="http://www.w3.org/2000/svg" xmlns:xlink="http://www.w3.org/1999/xlink" width="1600" height="980" viewBox="0 0 1600 980" role="img" aria-label="Feature Zone Map — Panasonic MAN1 vs D.Core 2">
  <defs>
    <linearGradient id="bg1" x1="0" x2="0" y1="0" y2="1"><stop stop-color="#fbfaf7"/><stop offset="1" stop-color="#eee6da"/></linearGradient>
    <filter id="sh1" x="-10%" y="-10%" width="120%" height="130%"><feDropShadow dx="0" dy="8" stdDeviation="16" flood-color="#2b2114" flood-opacity=".12"/></filter>
  </defs>
  <rect width="1600" height="980" fill="url(#bg1)"/>
  <text x="800" y="56" fill="#9a7f4a" font-family="Inter,sans-serif" font-size="13" font-weight="900" letter-spacing="4" text-anchor="middle">MASSAGE CHAIRS &amp; MORE — FEATURE ZONE MAP</text>
  <text x="800" y="100" fill="#0b0b0b" font-family="Georgia,serif" font-size="40" font-weight="800" text-anchor="middle">Compare one body zone at a time</text>
  <text x="800" y="132" fill="#67605a" font-family="Inter,sans-serif" font-size="16" text-anchor="middle">Real product images · Tap a zone to compare Panasonic MAN1 and D.Core 2 side by side</text>

  <!-- ========== MAN1 Card ========== -->
  <rect x="60" y="165" width="720" height="560" rx="24" fill="#fff" filter="url(#sh1)"/>
  <rect x="80" y="185" width="210" height="38" rx="19" fill="#9a7f4a"/>
  <text x="185" y="210" fill="#fff" font-family="Inter,sans-serif" font-size="14" font-weight="900" letter-spacing="2" text-anchor="middle">PANASONIC MAN1</text>
  <image href="https://massagechairsandmore.com/cdn/shop/files/Artboard-1.png?v=1772489014&amp;width=1200" x="220" y="250" width="400" height="400" preserveAspectRatio="xMidYMid meet"/>

  <!-- MAN1: Head (356,353) -->
  <circle cx="356" cy="353" r="22" fill="none" stroke="#9a7f4a" stroke-width="2.5" stroke-dasharray="4 3"/>
  <line x1="334" y1="348" x2="200" y2="310" stroke="#9a7f4a" stroke-width="1.5"/>
  <rect x="80" y="296" width="160" height="28" rx="8" fill="#9a7f4a" opacity=".12"/>
  <text x="160" y="315" fill="#9a7f4a" font-family="Inter,sans-serif" font-size="11" font-weight="800" text-anchor="middle">Infrared Heated Rollers</text>

  <!-- MAN1: Back (379,398) -->
  <circle cx="379" cy="398" r="28" fill="none" stroke="#9a7f4a" stroke-width="2.5" stroke-dasharray="4 3"/>
  <line x1="407" y1="390" x2="545" y2="360" stroke="#9a7f4a" stroke-width="1.5"/>
  <rect x="545" y="346" width="190" height="28" rx="8" fill="#9a7f4a" opacity=".12"/>
  <text x="640" y="365" fill="#9a7f4a" font-family="Inter,sans-serif" font-size="11" font-weight="800" text-anchor="middle">Real Pro Ultra H.I. Engine</text>

  <!-- MAN1: Arms (443,422) -->
  <circle cx="443" cy="422" r="18" fill="none" stroke="#9a7f4a" stroke-width="2.5" stroke-dasharray="4 3"/>
  <line x1="461" y1="426" x2="560" y2="440" stroke="#9a7f4a" stroke-width="1.5"/>
  <rect x="560" y="428" width="160" height="28" rx="8" fill="#9a7f4a" opacity=".12"/>
  <text x="640" y="447" fill="#9a7f4a" font-family="Inter,sans-serif" font-size="11" font-weight="800" text-anchor="middle">Shaped Palm Massage</text>

  <!-- MAN1: Calves (472,492) -->
  <circle cx="472" cy="492" r="22" fill="none" stroke="#9a7f4a" stroke-width="2.5" stroke-dasharray="4 3"/>
  <line x1="494" y1="486" x2="560" y2="510" stroke="#9a7f4a" stroke-width="1.5"/>
  <rect x="560" y="498" width="180" height="28" rx="8" fill="#9a7f4a" opacity=".12"/>
  <text x="650" y="517" fill="#9a7f4a" font-family="Inter,sans-serif" font-size="11" font-weight="800" text-anchor="middle">Wrap-Around Calf Massage</text>

  <!-- MAN1: Feet (498,539) -->
  <circle cx="498" cy="539" r="18" fill="none" stroke="#9a7f4a" stroke-width="2.5" stroke-dasharray="4 3"/>
  <line x1="498" y1="557" x2="480" y2="590" stroke="#9a7f4a" stroke-width="1.5"/>
  <rect x="380" y="582" width="180" height="28" rx="8" fill="#9a7f4a" opacity=".12"/>
  <text x="470" y="601" fill="#9a7f4a" font-family="Inter,sans-serif" font-size="11" font-weight="800" text-anchor="middle">Reflexology Foot Massage</text>

  <rect x="80" y="695" width="680" height="18" rx="4" fill="#9a7f4a" opacity=".06"/>
  <text x="420" y="708" fill="#9a7f4a" font-family="Inter,sans-serif" font-size="12" font-weight="700" text-anchor="middle">1260P Acupoint Body Scan · Pressure-sensing rollers · SL-Track</text>

  <!-- ========== D.Core 2 Card ========== -->
  <rect x="820" y="165" width="720" height="560" rx="24" fill="#fff" filter="url(#sh1)"/>
  <rect x="840" y="185" width="160" height="38" rx="19" fill="#617064"/>
  <text x="920" y="210" fill="#fff" font-family="Inter,sans-serif" font-size="14" font-weight="900" letter-spacing="2" text-anchor="middle">D.CORE 2</text>
  <image href="https://massagechairsandmore.com/cdn/shop/files/asd2.jpg?v=1772565432&amp;width=1200" x="980" y="250" width="400" height="400" preserveAspectRatio="xMidYMid meet"/>

  <!-- D.Core 2: Head (1110,345) -->
  <circle cx="1110" cy="345" r="22" fill="none" stroke="#617064" stroke-width="2.5" stroke-dasharray="4 3"/>
  <line x1="1088" y1="340" x2="960" y2="305" stroke="#617064" stroke-width="1.5"/>
  <rect x="840" y="291" width="160" height="28" rx="8" fill="#617064" opacity=".12"/>
  <text x="920" y="310" fill="#617064" font-family="Inter,sans-serif" font-size="11" font-weight="800" text-anchor="middle">3D+ True Shiatsu</text>

  <!-- D.Core 2: Back (1150,401) -->
  <circle cx="1150" cy="401" r="28" fill="none" stroke="#617064" stroke-width="2.5" stroke-dasharray="4 3"/>
  <line x1="1178" y1="393" x2="1310" y2="360" stroke="#617064" stroke-width="1.5"/>
  <rect x="1310" y="346" width="190" height="28" rx="8" fill="#617064" opacity=".12"/>
  <text x="1405" y="365" fill="#617064" font-family="Inter,sans-serif" font-size="11" font-weight="800" text-anchor="middle">10-Hand Massage Robot</text>

  <!-- D.Core 2: Glutes (1195,436) -->
  <circle cx="1195" cy="436" r="18" fill="none" stroke="#617064" stroke-width="2.5" stroke-dasharray="4 3"/>
  <line x1="1213" y1="440" x2="1320" y2="445" stroke="#617064" stroke-width="1.5"/>
  <rect x="1320" y="431" width="180" height="28" rx="8" fill="#617064" opacity=".12"/>
  <text x="1410" y="450" fill="#617064" font-family="Inter,sans-serif" font-size="11" font-weight="800" text-anchor="middle">Tornado-Shiatsu Arms</text>

  <!-- D.Core 2: Calves (1269,498) -->
  <circle cx="1269" cy="498" r="22" fill="none" stroke="#617064" stroke-width="2.5" stroke-dasharray="4 3"/>
  <line x1="1291" y1="492" x2="1350" y2="510" stroke="#617064" stroke-width="1.5"/>
  <rect x="1350" y="498" width="160" height="28" rx="8" fill="#617064" opacity=".12"/>
  <text x="1430" y="517" fill="#617064" font-family="Inter,sans-serif" font-size="11" font-weight="800" text-anchor="middle">Calf Roller System</text>

  <!-- D.Core 2: Feet (1290,543) -->
  <circle cx="1290" cy="543" r="18" fill="none" stroke="#617064" stroke-width="2.5" stroke-dasharray="4 3"/>
  <line x1="1290" y1="561" x2="1270" y2="590" stroke="#617064" stroke-width="1.5"/>
  <rect x="1160" y="582" width="200" height="28" rx="8" fill="#617064" opacity=".12"/>
  <text x="1260" y="601" fill="#617064" font-family="Inter,sans-serif" font-size="11" font-weight="800" text-anchor="middle">Full-Body Compression</text>

  <rect x="840" y="695" width="680" height="18" rx="4" fill="#617064" opacity=".06"/>
  <text x="1180" y="708" fill="#617064" font-family="Inter,sans-serif" font-size="12" font-weight="700" text-anchor="middle">Oak-panel design · Handcrafted in Japan · Furniture-first luxury</text>

  <!-- VS badge -->
  <circle cx="800" cy="450" r="32" fill="#1a1814"/>
  <text x="800" y="456" fill="#e7c77d" font-family="Inter,sans-serif" font-size="16" font-weight="900" text-anchor="middle">VS</text>

  <!-- Footer -->
  <text x="800" y="940" fill="#9a7f4a" font-family="Inter,sans-serif" font-size="11" font-weight="700" letter-spacing="3" text-anchor="middle">MASSAGECHAIRSANDMORE.COM</text>
</svg>
